<?xml version="1.0" encoding="UTF-8"?>
<svg width="161px" height="22px" viewBox="0 0 161 22" version="1.1" xmlns="http://www.w3.org/2000/svg" xmlns:xlink="http://www.w3.org/1999/xlink">
    <!-- Generator: Sketch 49.1 (51147) - http://www.bohemiancoding.com/sketch -->
    <title>Artboard</title>
    <desc>Created with Sketch.</desc>
    <defs>
        <polygon id="path-1" points="29.4643689 0.00346520147 0 0.00346520147 0 21.7515316 29.4643689 21.7515316 29.4643689 0.00346520147"></polygon>
        <polygon id="path-3" points="0 22 161 22 161 0 0 0"></polygon>
    </defs>
    <g id="Artboard" stroke="none" stroke-width="1" fill="none" fill-rule="evenodd">
        <g id="Page-1-Copy-2">
            <g id="Group-3">
                <mask id="mask-2" fill="white">
                    <use xlink:href="#path-1"></use>
                </mask>
                <g id="Clip-2"></g>
                <path d="M26.3250965,0.00277216117 C29.3506568,0.0859369963 29.8382113,2.01605421 29.2429988,3.21616899 C25.9959354,9.76770989 20.4967167,21.7515316 20.4967167,21.7515316 L11.5796667,21.7515316 L12.9891199,18.7425817 C13.2588836,18.1696684 12.9779829,17.7053314 12.3629713,17.7053314 L11.4088989,17.7053314 C10.7951247,17.7053314 10.0786423,18.1696684 9.81011614,18.7425817 L8.39942547,21.7515316 L-0.000371234386,21.7515316 L8.79045902,3.21616899 C9.14931893,2.21126056 11.3037158,0.00277216117 13.6721912,0.00277216117 L26.3250965,0.00277216117 Z M16.9316291,6.82921905 C16.1124386,6.82921905 15.1571287,7.44833504 14.7982688,8.2129895 L13.6276431,10.7113998 L16.8078843,10.7113998 L17.9785101,8.2129895 C18.33737,7.44833504 17.9636607,6.82921905 17.1444702,6.82921905 L16.9316291,6.82921905 Z" id="Fill-1" fill="#E21836" mask="url(#mask-2)"></path>
            </g>
            <mask id="mask-4" fill="white">
                <use xlink:href="#path-3"></use>
            </mask>
            <g id="Clip-5"></g>
            <polygon id="Fill-4" fill="#005CA9" mask="url(#mask-4)" points="127 22 136 22 136 0 127 0"></polygon>
            <path d="M156.432846,15.1474451 C153.065109,15.1603126 148.207038,15.1568033 148.207038,15.153294 L148.207038,22 L139,22 L139,0.00116977721 L156.15179,0 C158.829215,0 161,3.37948636 161,7.56845855 C161,11.608869 158.978372,14.9205083 156.432846,15.1474451 M148.20827,7.18828096 L148.20827,8.74174509 L150.704488,8.74174509 C151.214826,8.74174509 151.627781,8.39432126 151.627781,7.96501303 C151.627781,7.53570479 151.214826,7.18828096 150.704488,7.18828096" id="Fill-6" fill="#005CA9" mask="url(#mask-4)"></path>
            <path d="M151.110917,19.2162716 C151.379451,19.2162716 151.618797,19.2361721 151.618797,19.5218028 C151.618797,19.8273339 151.201985,19.7758267 150.897256,19.7758267 L150.552831,19.7758267 L150.552831,19.2162716 L151.110917,19.2162716 Z M151.344425,20.1012584 C151.644483,20.0918935 151.943374,19.928007 151.943374,19.4855136 C151.943374,19.0125841 151.577933,18.8908399 151.172796,18.8908399 L150.228255,18.8908399 L150.228255,21.1395961 L150.552831,21.1395961 L150.552831,20.1012584 L150.968476,20.1012584 L151.542907,21.1395961 L151.913018,21.1395961 L151.344425,20.1012584 Z M150.998832,18.3254317 C151.913018,18.3254317 152.674256,19.0535558 152.674256,19.9994147 C152.674256,20.9417618 151.913018,21.6733977 150.998832,21.6733977 C150.085814,21.6733977 149.324577,20.9417618 149.324577,19.9994147 C149.324577,19.0535558 150.085814,18.3254317 150.998832,18.3254317 Z M150.998832,22 C152.11617,22 153,21.1138426 153,19.9994147 C153,18.8849868 152.11617,18 150.998832,18 C149.882662,18 149,18.8849868 149,19.9994147 C149,21.1138426 149.882662,22 150.998832,22 Z" id="Fill-7" fill="#005CA9" mask="url(#mask-4)"></path>
            <path d="M120.535096,0 C123.606401,0 124.974283,3.99978748 124.975508,7.28657953 C124.975508,9.87673999 124.086446,11.6919562 122.222599,13.3867814 C124.442805,15.0816066 124.277484,19.2193178 125,22 C122.370777,22 117.243362,21.9801296 115.668522,21.9812985 C115.102755,19.9778982 115.841191,15.1634258 113.080935,15.1634258 L112.146563,15.1400489 L112.146563,21.9812985 L103,21.9812985 L103,0 L120.535096,0 Z M112.14044,7.20008501 L112.14044,8.75347997 L114.619037,8.75347997 C115.126023,8.75347997 115.536265,8.40516417 115.536265,7.97619807 C115.536265,7.54723196 115.126023,7.20008501 114.619037,7.20008501 L112.14044,7.20008501 Z" id="Fill-8" fill="#005CA9" mask="url(#mask-4)"></path>
            <path d="M65,0 L56.3117336,18.1523134 C54.922832,20.394542 51.6464487,21.8240498 47.9185452,21.9121622 C44.7451848,21.9886808 41.4090228,22.0083902 40.3571715,19.1609685 C36.2896739,22.3782304 33.5360366,22.0431714 30.1909713,21.9353496 C26.1425521,21.8043404 23.9383703,19.4229869 25.5091519,16.1350032 L33.327447,0 L42.6236758,0 L36.2871301,13.1994691 C35.9195545,13.9669745 36.232439,14.5883988 36.9853966,14.5883988 C37.7396262,14.5883988 38.6502979,13.9669745 39.0178735,13.1994691 L45.355691,0 L52.1641071,0 L45.8275615,13.1994691 C45.458714,13.9669745 45.7728703,14.5883988 46.5258279,14.5883988 C47.2800575,14.5883988 48.1907292,13.9669745 48.5583048,13.1994691 L54.8961223,0" id="Fill-9" fill="#E21836" mask="url(#mask-4)"></path>
            <polyline id="Fill-10" fill="#E21836" mask="url(#mask-4)" points="76.9169198 0 69.8104656 15.1517601 76.6875194 15.1517601 73.506913 22 57 22 67.2895406 0 77 0"></polyline>
            <path d="M98.9406961,7.23628827 L88.7064342,7.22810374 C88.3038744,7.22810374 87.9779348,7.54145408 87.9779348,7.92846514 L87.9779348,14.4784226 C87.9779348,14.8654337 88.3038744,15.178784 88.7064342,15.178784 L90.3762669,15.178784 C90.7776105,15.178784 91.1047663,14.8654337 91.1047663,14.4784226 L91.1047663,12.772534 L89.7329009,12.772534 L89.7329009,8.77497874 L100,8.77497874 L100,19.233631 C100,20.7617985 98.7108357,22 97.1200556,22 L81.8799444,22 C80.3086234,22 79.031621,20.7910289 79,19.2897534 L79,2.76636905 C79,1.34460034 80.1164649,0.173044218 81.5527886,0.0175382653 L81.8799444,0 L98.9406961,0" id="Fill-11" fill="#005CA9" mask="url(#mask-4)"></path>
        </g>
    </g>
</svg>